<svg width="450" height="292" viewBox="0 0 450 292" fill="none" xmlns="http://www.w3.org/2000/svg">
<path d="M228.151 14.6692C231.494 11.596 237.013 12.3353 239.415 16.1974C241.613 19.6526 240.584 24.2291 237.117 26.4218L215.439 40.1221L217.441 36.7209L213.936 54.8938L212.188 50.8115L221.662 57.8049C225.903 61.1314 221.362 67.4521 216.838 64.5077L207.172 57.78C205.899 56.9038 205.187 55.3091 205.424 53.6936L207.127 35.2632C207.231 34.1835 207.718 33.1286 208.583 32.3479L209.133 31.8537L228.155 14.665V14.6733L228.151 14.6692Z" fill="#E48544"/>
<path d="M239.463 20.5382C242.31 18.6943 246.222 19.7367 247.758 22.7683C249.215 25.613 248.1 29.0972 245.244 30.559L220.394 43.2834L222.596 39.9196L222.055 51.7054L220.182 47.1622L228.561 55.5593C231.816 58.9314 227.616 64.1432 223.595 61.6349L213.664 55.144C212.265 54.2262 211.462 52.5443 211.757 50.7918L211.79 50.6008L213.763 38.9644C213.976 37.6313 214.733 36.3897 215.965 35.6006L239.458 20.5423V20.534L239.463 20.5382Z" fill="#E48544"/>
<path d="M241.516 23.93C244.7 21.8037 249.121 22.9167 250.907 26.3012C252.609 29.4906 251.398 33.44 248.209 35.1302L230.844 44.3537L233.383 40.9733L231.031 52.3023L229.212 46.1935L234.802 54.6154C236.942 57.8381 233.324 61.8871 229.849 60.0515L220.908 55.3048C219.076 54.3372 218.144 52.1819 218.789 50.1387L219.085 49.2043C219.085 49.2043 222.556 38.1535 222.577 38.1452C223.001 36.8205 223.859 35.6203 225.116 34.7897L241.504 23.9341H241.512L241.516 23.93Z" fill="#E48544"/>
<path d="M282.603 43.976C277.001 45.9985 270.47 54.0758 260.567 58.6439C240.184 69.5411 243.801 50.2676 241.1 41.314C238.398 32.3605 211.292 24.6195 210.639 21.8496C209.985 19.0796 233.004 10.2631 240.334 8.94247C247.664 7.62186 265.583 11.0936 273.005 10.8071C280.426 10.5206 288.206 41.9536 282.603 43.976Z" fill="#FDB47E"/>
<path d="M242.54 11.5836C247.876 10.6866 252.912 14.7647 253.108 20.1634C253.324 25.1759 249.42 29.4201 244.396 29.6361L205.677 31.3055L208.403 30.421L183.408 41.6046C179.058 43.4568 175.661 37.6594 179.441 34.7939L201.56 18.6725C202.051 18.3195 202.642 18.0538 203.292 17.9499L204.287 17.788L242.544 11.5919V11.5836H242.54Z" fill="#FDB47E"/>
<path d="M255.345 39.1551C259.807 34.6368 267.695 35.5629 270.954 41.0363C273.855 45.7457 272.369 51.9127 267.649 54.7948L246.362 67.8098L247.486 66.7093L232.634 81.0699C228.622 84.8283 222.536 79.932 225.412 75.2102L236.493 57.7807L237.617 56.6801L255.357 39.1468L255.345 39.1592V39.1551Z" fill="#FDB47E"/>
<path d="M221.866 33.4729L216.459 37.7296C216.459 37.7296 213.437 50.0054 214.498 51.7247C215.56 53.444 222.411 56.5088 223.206 61.3303" stroke="#C66E34" stroke-width="3.78" stroke-miterlimit="10" stroke-linecap="round"/>
<path d="M228.757 36.2517L223.708 39.9395C223.708 39.9395 220.02 47.6762 223.121 50.2136C226.218 52.751 230.16 55.3881 229.544 59.9978" stroke="#C66E34" stroke-width="3.78" stroke-miterlimit="10" stroke-linecap="round"/>
<path d="M297.707 44.0054C299.085 44.4249 450 66.8254 450 66.8254V2.87134L274.235 10.9985L277.257 43.5694L297.707 44.0054Z" fill="#FFB57F"/>
<path d="M196.747 97.0607C196.709 96.9361 196.68 96.8157 196.643 96.6911C196.609 96.5707 196.572 96.4503 196.543 96.3298C196.489 96.1305 196.443 95.9311 196.397 95.7318C196.372 95.6238 196.343 95.52 196.322 95.412C196.318 95.3871 196.31 95.3664 196.305 95.3414C196.289 95.2667 196.276 95.1878 196.264 95.113C196.21 94.8431 196.16 94.5773 196.114 94.3115C196.093 94.1828 196.072 94.0582 196.056 93.9295C196.018 93.6886 195.989 93.4477 195.96 93.2069C195.952 93.1321 195.939 93.0615 195.931 92.9868C195.922 92.9162 195.918 92.8414 195.914 92.7708C195.902 92.6421 195.893 92.5133 195.881 92.3846C195.868 92.206 195.856 92.0316 195.847 91.853C195.839 91.7243 195.835 91.5997 195.831 91.4709C195.827 91.2924 195.823 91.1138 195.818 90.9394C195.818 90.8148 195.818 90.6944 195.818 90.5698C195.818 90.3871 195.827 90.2043 195.831 90.0216C195.831 89.9053 195.835 89.7932 195.843 89.6769C195.852 89.4734 195.868 89.2699 195.885 89.0706C195.893 88.9792 195.897 88.8879 195.906 88.7965C195.931 88.5058 195.964 88.2151 196.006 87.9244C196.01 87.8912 196.018 87.8579 196.022 87.8289C196.06 87.5714 196.097 87.3181 196.143 87.0689C196.16 86.9693 196.181 86.8738 196.201 86.7782C196.23 86.6287 196.26 86.475 196.289 86.3255C196.293 86.3006 196.301 86.2757 196.31 86.2467C196.389 85.8978 196.472 85.5531 196.568 85.2084C196.584 85.142 196.605 85.0797 196.626 85.0174C196.709 84.7392 196.792 84.461 196.888 84.1869C196.905 84.1412 196.917 84.0913 196.934 84.0456C196.963 83.9584 196.996 83.8754 197.03 83.7882C197.071 83.6677 197.117 83.5514 197.163 83.4352C197.221 83.2857 197.284 83.1362 197.342 82.9908C197.388 82.8787 197.438 82.7624 197.488 82.6503C197.504 82.6087 197.521 82.5672 197.537 82.5298C197.604 82.3803 197.675 82.235 197.746 82.0896C197.771 82.0398 197.791 81.99 197.816 81.9401C197.925 81.7242 198.033 81.5082 198.149 81.2964C198.162 81.2757 198.17 81.2591 198.183 81.2383C198.208 81.1885 198.237 81.1428 198.266 81.0929C198.366 80.9102 198.474 80.7316 198.578 80.5572C198.616 80.4949 198.653 80.4327 198.69 80.3745C198.72 80.3288 198.745 80.2832 198.774 80.2375C198.811 80.1835 198.849 80.1295 198.886 80.0755C199.019 79.8679 199.161 79.6685 199.302 79.4692C199.34 79.4193 199.369 79.3653 199.406 79.3155C199.436 79.2781 199.465 79.2408 199.494 79.2034C199.635 79.0124 199.781 78.8296 199.931 78.6469C199.972 78.5929 200.014 78.5389 200.06 78.4849C200.072 78.4683 200.089 78.4559 200.102 78.4393C200.306 78.1984 200.514 77.9659 200.73 77.7375C200.73 77.7375 200.738 77.7291 200.738 77.725C200.768 77.6959 200.801 77.6669 200.83 77.6378C201.013 77.4509 201.196 77.264 201.388 77.0854C201.409 77.0688 201.425 77.048 201.446 77.0273C201.504 76.9733 201.567 76.9235 201.629 76.8695C201.779 76.7366 201.925 76.6037 202.079 76.4791C202.116 76.4501 202.149 76.4168 202.183 76.3878C202.237 76.3421 202.299 76.3005 202.353 76.259C202.503 76.1386 202.657 76.0223 202.811 75.9102C202.865 75.8728 202.911 75.8313 202.965 75.7939C203.011 75.7607 203.057 75.7358 203.103 75.7025C203.269 75.5863 203.44 75.4741 203.61 75.3661C203.677 75.3246 203.735 75.279 203.802 75.2374C203.848 75.2084 203.894 75.1834 203.939 75.1585C203.985 75.1294 204.031 75.1045 204.077 75.0796C204.285 74.9592 204.493 74.8388 204.709 74.7266C204.718 74.7225 204.726 74.7183 204.734 74.7142C204.755 74.7017 204.78 74.6934 204.801 74.681C205.009 74.573 205.217 74.4733 205.429 74.3778C205.484 74.3528 205.534 74.328 205.588 74.3072C205.629 74.2906 205.671 74.2698 205.713 74.249C205.908 74.166 206.104 74.0871 206.304 74.0082C206.329 73.9999 206.358 73.9874 206.383 73.9791C206.541 73.921 206.703 73.8628 206.861 73.8047C206.953 73.7756 207.045 73.7424 207.14 73.7133L210.737 72.5837C210.479 72.6626 210.229 72.754 209.979 72.8454C209.954 72.8537 209.925 72.8661 209.9 72.8744C209.659 72.9658 209.421 73.0655 209.184 73.1693C209.13 73.1942 209.076 73.2191 209.026 73.2399C208.814 73.3354 208.605 73.4351 208.401 73.5431C208.381 73.5555 208.356 73.5638 208.331 73.5763C208.11 73.6926 207.89 73.813 207.677 73.9417C207.631 73.9667 207.586 73.9957 207.54 74.0206C207.427 74.0871 207.319 74.1577 207.211 74.2283C207.04 74.3362 206.87 74.4484 206.703 74.5647C206.603 74.6311 206.508 74.7017 206.412 74.7723C206.258 74.8844 206.104 75.0049 205.954 75.1211C205.862 75.1959 205.767 75.2665 205.679 75.3412C205.525 75.47 205.375 75.5987 205.226 75.7357C205.146 75.8063 205.063 75.877 204.988 75.9517C204.797 76.1303 204.609 76.3172 204.426 76.5041C204.393 76.5373 204.36 76.5705 204.326 76.6037C204.11 76.8321 203.902 77.0647 203.698 77.3055C203.64 77.372 203.586 77.4426 203.531 77.5132C203.382 77.6959 203.236 77.8786 203.094 78.0697C203.028 78.1569 202.965 78.2441 202.903 78.3354C202.761 78.5348 202.62 78.7383 202.487 78.9418C202.42 79.0415 202.353 79.137 202.291 79.2408C202.254 79.3031 202.216 79.3612 202.179 79.4235C202.07 79.6021 201.966 79.7807 201.866 79.9592C201.841 80.0091 201.812 80.0547 201.783 80.1046C201.658 80.3371 201.533 80.5697 201.417 80.8064C201.392 80.8563 201.371 80.9061 201.346 80.9559C201.255 81.1428 201.171 81.3297 201.084 81.5207C201.034 81.6328 200.988 81.7449 200.938 81.8612C200.876 82.0107 200.817 82.1561 200.759 82.3056C200.713 82.4219 200.672 82.5423 200.626 82.6586C200.576 82.7915 200.53 82.9244 200.484 83.0572C200.393 83.3313 200.305 83.6096 200.222 83.8878C200.206 83.9501 200.181 84.0166 200.164 84.0789C200.068 84.4194 199.981 84.7683 199.906 85.1171C199.868 85.2915 199.831 85.4701 199.798 85.6486C199.777 85.7441 199.756 85.8438 199.739 85.9394C199.694 86.1927 199.656 86.446 199.619 86.6993C199.615 86.7325 199.606 86.7658 199.602 86.7948C199.565 87.0814 199.531 87.3721 199.502 87.6669C199.494 87.7583 199.49 87.8497 199.481 87.941C199.465 88.1445 199.448 88.3438 199.44 88.5515C199.436 88.6636 199.431 88.7799 199.427 88.8962C199.423 89.0789 199.415 89.2616 199.415 89.4443C199.415 89.5689 199.415 89.6894 199.415 89.814C199.415 89.9925 199.419 90.167 199.427 90.3455C199.431 90.4743 199.44 90.5989 199.444 90.7276C199.452 90.902 199.465 91.0806 199.477 91.2591C199.486 91.3879 199.498 91.5166 199.51 91.6454C199.523 91.7907 199.54 91.9361 199.556 92.0814C199.585 92.3223 199.615 92.5632 199.652 92.804C199.673 92.9328 199.689 93.0573 199.71 93.1861C199.756 93.4519 199.806 93.7218 199.86 93.9876C199.881 94.0873 199.898 94.1869 199.918 94.2866C199.943 94.3946 199.968 94.4984 199.993 94.6064C200.039 94.8057 200.089 95.005 200.139 95.2044C200.172 95.3248 200.206 95.4452 200.239 95.5657C200.305 95.8024 200.372 96.0391 200.447 96.2758C200.555 96.6205 200.672 96.961 200.797 97.2933C200.897 97.559 200.996 97.8248 201.105 98.0865C201.13 98.1488 201.155 98.2069 201.184 98.2692C201.255 98.4394 201.329 98.6014 201.404 98.7676C201.513 99.0084 201.625 99.2451 201.742 99.4818C201.792 99.5857 201.846 99.6936 201.896 99.7975C202.033 100.063 202.174 100.325 202.32 100.587C202.349 100.64 202.378 100.694 202.408 100.744C202.582 101.047 202.766 101.342 202.949 101.633C203.003 101.716 203.061 101.799 203.115 101.878C203.248 102.082 203.386 102.285 203.527 102.48C203.602 102.584 203.677 102.684 203.752 102.783C203.881 102.958 204.01 103.132 204.147 103.298C204.231 103.402 204.314 103.502 204.393 103.606C204.53 103.772 204.668 103.934 204.809 104.096C204.893 104.191 204.976 104.287 205.059 104.382C205.226 104.569 205.4 104.748 205.575 104.926C205.642 104.993 205.704 105.063 205.775 105.13C206.025 105.379 206.279 105.62 206.541 105.852C206.595 105.898 206.649 105.944 206.699 105.989C206.928 106.189 207.157 106.384 207.39 106.571C207.473 106.637 207.552 106.7 207.636 106.762C207.948 107.003 208.264 107.239 208.585 107.459C208.585 107.459 208.585 107.459 208.589 107.459C208.593 107.464 208.601 107.468 208.605 107.472C208.826 107.621 209.051 107.767 209.28 107.908C209.355 107.954 209.434 107.999 209.513 108.045C209.667 108.136 209.821 108.228 209.975 108.315C210.133 108.402 210.287 108.485 210.445 108.568C210.553 108.626 210.666 108.685 210.774 108.739C210.945 108.822 211.115 108.901 211.29 108.979C211.394 109.025 211.494 109.075 211.598 109.121C211.665 109.15 211.727 109.175 211.794 109.204C211.973 109.278 212.152 109.353 212.335 109.42C212.422 109.453 212.51 109.482 212.597 109.515C212.76 109.573 212.926 109.631 213.093 109.685C213.184 109.714 213.272 109.744 213.363 109.773C213.538 109.827 213.713 109.876 213.888 109.922C213.967 109.943 214.042 109.968 214.121 109.984C214.375 110.051 214.629 110.109 214.882 110.163C214.899 110.163 214.92 110.171 214.937 110.171C215.174 110.217 215.411 110.263 215.648 110.296C215.732 110.308 215.815 110.321 215.898 110.329C216.073 110.354 216.248 110.375 216.427 110.396C216.522 110.404 216.614 110.412 216.71 110.42C216.88 110.437 217.055 110.445 217.226 110.454C217.317 110.458 217.405 110.462 217.496 110.466C217.696 110.474 217.896 110.474 218.096 110.474C218.158 110.474 218.217 110.474 218.279 110.474C218.537 110.47 218.799 110.458 219.057 110.441C219.124 110.437 219.186 110.429 219.253 110.425C219.449 110.408 219.644 110.387 219.84 110.366C219.931 110.354 220.023 110.342 220.115 110.329C220.285 110.304 220.46 110.275 220.631 110.246C220.727 110.229 220.818 110.213 220.914 110.192C221.093 110.155 221.272 110.117 221.447 110.076C221.53 110.055 221.613 110.038 221.696 110.018C221.954 109.951 222.208 109.881 222.466 109.802L218.87 110.931C218.612 111.01 218.354 111.085 218.096 111.151C218.013 111.172 217.929 111.189 217.85 111.21C217.671 111.251 217.492 111.293 217.313 111.33C217.218 111.351 217.126 111.367 217.03 111.384C216.855 111.413 216.685 111.442 216.51 111.467C216.418 111.479 216.327 111.492 216.235 111.504C216.04 111.529 215.844 111.55 215.648 111.562C215.582 111.567 215.519 111.575 215.453 111.579C215.195 111.596 214.932 111.608 214.674 111.612C214.612 111.612 214.554 111.612 214.491 111.612C214.291 111.612 214.092 111.612 213.892 111.604C213.8 111.604 213.713 111.596 213.621 111.592C213.451 111.583 213.276 111.571 213.105 111.558C213.009 111.55 212.918 111.542 212.822 111.533C212.647 111.517 212.468 111.492 212.293 111.467C212.21 111.455 212.127 111.446 212.044 111.434C211.806 111.396 211.569 111.355 211.332 111.309C211.315 111.309 211.294 111.301 211.278 111.301C211.024 111.247 210.77 111.189 210.516 111.122C210.437 111.102 210.362 111.081 210.283 111.06C210.108 111.01 209.933 110.96 209.758 110.911C209.667 110.881 209.579 110.852 209.488 110.823C209.321 110.769 209.159 110.711 208.993 110.653C208.905 110.62 208.818 110.591 208.73 110.558C208.547 110.487 208.368 110.416 208.189 110.342C208.123 110.313 208.056 110.288 207.994 110.258C207.977 110.25 207.96 110.246 207.944 110.238C207.856 110.2 207.773 110.155 207.686 110.117C207.515 110.038 207.34 109.96 207.169 109.876C207.057 109.822 206.949 109.764 206.841 109.706C206.682 109.623 206.524 109.54 206.37 109.453C206.337 109.436 206.304 109.42 206.27 109.399C206.15 109.328 206.029 109.254 205.908 109.183C205.833 109.137 205.754 109.092 205.679 109.046C205.45 108.905 205.226 108.759 205.005 108.61C205.001 108.606 204.992 108.601 204.988 108.597C204.664 108.377 204.347 108.141 204.039 107.9C204.002 107.871 203.96 107.842 203.919 107.812C203.877 107.779 203.835 107.742 203.794 107.709C203.561 107.522 203.327 107.327 203.103 107.127C203.061 107.09 203.019 107.061 202.978 107.023C202.965 107.011 202.953 106.998 202.94 106.99C202.678 106.758 202.424 106.517 202.174 106.268C202.162 106.255 202.145 106.239 202.129 106.226C202.075 106.172 202.029 106.118 201.975 106.064C201.8 105.886 201.629 105.703 201.459 105.52C201.425 105.483 201.388 105.45 201.354 105.412C201.305 105.354 201.255 105.292 201.205 105.234C201.063 105.072 200.926 104.91 200.788 104.744C200.743 104.69 200.693 104.636 200.647 104.577C200.609 104.532 200.576 104.482 200.539 104.436C200.405 104.266 200.276 104.096 200.143 103.921C200.089 103.851 200.035 103.784 199.985 103.714C199.964 103.68 199.943 103.647 199.918 103.618C199.777 103.419 199.64 103.219 199.506 103.016C199.461 102.945 199.411 102.883 199.365 102.812C199.356 102.8 199.348 102.783 199.34 102.771C199.152 102.48 198.969 102.185 198.799 101.882C198.799 101.874 198.79 101.87 198.786 101.861C198.761 101.816 198.736 101.77 198.711 101.724C198.566 101.467 198.42 101.205 198.287 100.935C198.27 100.902 198.249 100.869 198.233 100.836C198.195 100.765 198.166 100.69 198.129 100.62C198.012 100.383 197.9 100.146 197.791 99.9054C197.762 99.8431 197.733 99.785 197.704 99.7227C197.658 99.6189 197.612 99.5109 197.571 99.4071C197.546 99.3448 197.517 99.2867 197.492 99.2244C197.392 98.9835 197.296 98.7385 197.204 98.4934C197.196 98.4727 197.192 98.4519 197.184 98.4353C197.059 98.0989 196.942 97.7626 196.834 97.4179C196.797 97.3057 196.763 97.1894 196.73 97.0773L196.747 97.0607Z" fill="#FFAE00"/>
<path d="M222.503 109.775C231.426 106.968 236.026 96.36 232.778 86.0813C229.53 75.8027 219.663 69.7458 210.739 72.5528C201.816 75.3597 197.215 85.9677 200.464 96.2463C203.712 106.525 213.579 112.582 222.503 109.775Z" fill="#FFD733"/>
<path d="M223.388 109.487C225.59 108.656 227.58 107.281 229.174 105.55C230.768 103.81 231.971 101.729 232.754 99.5072C233.536 97.2854 233.907 94.9225 233.89 92.5678C233.873 90.209 233.461 87.8585 232.708 85.6242C231.205 81.1599 228.237 77.1565 224.258 74.6025C222.273 73.3276 220.041 72.4264 217.706 72.0485C215.375 71.6789 212.961 71.8492 210.722 72.5759C212.969 71.8824 215.379 71.7495 217.69 72.1523C220.004 72.5427 222.218 73.4439 224.179 74.7188C228.117 77.277 231.039 81.2596 232.508 85.6907C233.266 87.9 233.686 90.2297 233.715 92.5678C233.744 94.9059 233.386 97.2481 232.62 99.4615C231.859 101.671 230.668 103.743 229.099 105.479C227.538 107.223 225.578 108.623 223.388 109.487Z" fill="#EDB400"/>
<path d="M235.554 240.66C235.483 241.781 235.603 242.936 235.554 244.057L247.075 244.265C247.7 244.057 247.296 241.781 247.233 241.146C251.271 241.254 255.367 241.192 259.396 241.387C260.482 241.441 262.376 241.873 263.409 241.873H267.059C268.071 241.873 269.927 242.035 271.072 242.114C272.117 242.184 273.27 242.276 274.352 242.359C279.913 242.778 285.499 243.372 291.018 244.053C290.585 245.98 290.34 247.973 289.803 249.875L297.553 250.569C297.882 250.365 298.053 245.943 298.07 245.178C298.128 244.954 298.398 245.041 298.561 245.025C300.005 244.867 304.858 246.001 306.594 246.354C310.249 247.093 321.163 249.34 322.986 252.566C323.864 254.115 323.169 254.921 322.037 255.951C316.913 260.619 297.183 263.119 289.919 263.953C259.875 267.396 227.936 267.467 197.733 266.375C179.131 265.702 156.646 264.718 138.731 259.954C131.122 257.932 121.719 253.617 134.718 248.903C141.228 246.545 148.475 245.714 155.276 244.539C155.276 244.572 155.543 244.796 155.53 245.129C155.497 246.196 155.043 247.483 155.276 248.667L165.495 247.695C165.612 246.221 165.379 244.78 165.25 243.326C169.221 243.036 173.187 242.512 177.171 242.354C177.658 242.334 178.299 242.354 178.753 242.354H185.075C186.578 242.354 188.368 241.856 189.821 241.628C192.014 241.283 194.603 241.241 196.876 241.142C202.899 240.88 209.118 240.743 215.12 240.656C221.926 240.556 228.748 240.731 235.554 240.656V240.66Z" fill="#A0D92A"/>
<path d="M222.177 131.691C213.894 132.501 206.963 139.544 206.356 147.82C205.944 153.427 209.14 158.356 206.497 163.738C205.706 165.349 204.17 166.89 203.251 168.51C201.024 172.426 200.562 176.255 200.77 180.719C200.782 180.96 200.753 181.205 200.77 181.446C195.642 182.467 191.442 181.072 187.629 177.687C186.068 176.3 184.882 174.552 183.383 173.186C176.319 166.753 166.429 166.217 158.2 170.765C160.356 164 163.724 161.604 168.057 156.691C173.218 150.835 170.708 142.476 172.798 135.329C174.604 129.149 177.884 126.728 181.552 122.098C186.538 115.798 190.95 107.999 200.17 107.181C215.109 105.852 219.596 119.851 222.181 131.691H222.177Z" fill="#A0D92A"/>
<path d="M297.342 154.502C285.895 158.231 283.931 166.429 280.559 176.832C276.001 176.799 271.044 175.752 267.751 172.376C265.037 169.594 265.029 166.936 263.78 163.597C260.783 155.578 253.091 150.868 244.558 151.832C244.525 151.761 244.358 151.686 244.317 151.591C244.275 151.495 244.104 151.421 244.075 151.35C242.589 148.036 241.44 144.614 239.696 141.4C240.108 141.146 240.15 140.744 240.187 140.312C240.583 136.059 239.784 133.26 241.395 128.896C249.187 107.749 289.013 110.885 292.659 133.821C293.621 139.859 291.515 144.689 294.791 150.628C295.544 151.994 296.734 153.053 297.351 154.506L297.342 154.502Z" fill="#A0D92A"/>
<path d="M239.691 141.396C241.435 144.614 242.584 148.032 244.07 151.346L244.311 151.587C244.357 151.686 244.524 151.757 244.553 151.828C245.706 154.402 246.517 157.131 247.866 159.809C250.314 164.664 253.748 169.05 255.987 173.917C250.975 180.188 245.26 186.55 236.644 187.26C222.667 188.414 221.476 175.607 209.164 176.828C205.958 177.148 203.444 179.191 200.768 180.711C200.56 176.246 201.018 172.418 203.249 168.501C204.169 166.886 205.705 165.341 206.495 163.73C209.139 158.348 205.942 153.418 206.354 147.812C206.962 139.535 213.892 132.492 222.175 131.682C230.097 130.906 236.045 134.66 239.691 141.392V141.396Z" fill="#28BD3B"/>
<path d="M297.829 154.503L298.07 154.744C307.835 154.544 313.779 161.716 314.379 171.114C314.55 173.76 314.129 176.035 314.783 178.722C315.715 182.551 318.508 184.142 320.248 187.348C323.307 192.975 323.391 199.183 321.909 205.226C320.764 205.201 319.723 204.64 318.595 204.528C310.891 203.756 309.45 210.774 303.486 213.179C299.71 214.699 295.898 214.47 292.314 212.552C287.165 209.794 282.798 200.94 275.876 203.594C274.611 204.08 273.732 205.188 272.529 205.716C272.48 205.101 272.242 204.62 272.288 203.772C272.442 200.716 273.703 197.186 274.719 194.308C276.784 188.465 278.657 182.692 280.559 176.833C283.93 166.43 285.895 158.232 297.342 154.503C297.442 154.47 297.683 154.499 297.829 154.503Z" fill="#28BD3B"/>
<path d="M172.793 135.329C170.704 142.472 173.214 150.831 168.052 156.691C163.723 161.604 160.352 164 158.196 170.765C156.11 177.302 156.064 185.354 158.924 191.638C147.148 198.577 134.074 191.164 127.302 180.96C128.284 173.319 131.002 171.974 135.044 166.479C139.136 160.919 137.645 157.368 138.524 151.263C140.838 135.213 159.357 131.172 172.789 135.333L172.793 135.329Z" fill="#28BD3B"/>
<path d="M158.928 191.637C160.189 194.411 165.009 198.476 167.765 199.93C168.739 200.445 171.969 201.471 172.306 202.073C172.36 202.172 172.289 202.521 172.443 202.774C173.946 205.245 176.085 207.268 177.413 209.838C176.552 209.809 174.633 210.719 173.53 210.939C170.537 211.537 166.853 211.358 164.035 210.079C161.654 209 160.564 207.363 157.467 207.168C154.516 206.981 151.281 208.647 148.222 208.381C147.165 208.289 144.934 207.882 143.843 207.654C131.589 205.067 125.807 192.579 127.301 180.955C134.074 191.163 147.148 198.576 158.924 191.632L158.928 191.637Z" fill="#027D40"/>
<path d="M321.913 205.229C319.782 213.925 310.82 225.014 300.751 221.733C299.082 221.189 298.45 220.367 296.373 220.034C293.717 219.611 292.252 220.811 289.804 221.006C288.743 221.093 287.461 220.919 286.399 220.765C280.414 219.893 275.223 215.558 273.263 209.843C272.692 208.178 272.667 207.422 272.534 205.715C273.737 205.188 274.615 204.079 275.881 203.593C282.803 200.939 287.169 209.793 292.318 212.551C295.902 214.469 299.715 214.698 303.49 213.178C309.455 210.778 310.9 203.755 318.6 204.527C319.728 204.64 320.769 205.2 321.913 205.225V205.229Z" fill="#027D40"/>
<path d="M164.034 210.079C163.63 210.332 163.792 211.001 163.788 211.412C163.734 215.619 163.801 219.838 163.801 224.045C163.801 230.474 164.679 236.919 165.249 243.331C165.378 244.785 165.611 246.23 165.495 247.7L155.276 248.672C155.043 247.488 155.497 246.197 155.53 245.133C155.542 244.801 155.272 244.577 155.276 244.544C155.388 242.089 155.996 239.618 155.751 237.131L156.454 226.267L145.186 215.656L143.842 207.654C144.932 207.882 147.163 208.289 148.221 208.381C148.412 210.125 148.587 211.956 149.182 213.609C151.355 215.22 153.378 217.06 155.542 218.671C155.771 218.842 156.808 219.739 156.974 219.544L157.461 207.168C160.558 207.363 161.649 208.999 164.03 210.079H164.034Z" fill="#BE6632"/>
<path d="M300.748 221.732L298.313 243.46L298.559 245.03C298.396 245.047 298.126 244.959 298.067 245.184C298.051 245.948 297.88 250.371 297.551 250.574L289.801 249.881C290.342 247.974 290.587 245.981 291.016 244.058C291.819 240.47 292.952 236.936 293.451 233.269L287.07 225.296L286.392 220.757C287.453 220.91 288.735 221.085 289.797 220.997C289.926 221.766 289.884 223.277 290.163 223.909C290.479 224.615 292.76 226.687 293.439 227.434C293.963 228.016 294.001 228.975 294.904 228.767L296.365 220.03C298.442 220.362 299.075 221.184 300.744 221.728L300.748 221.732Z" fill="#BE6632"/>
<path d="M298.075 154.748L297.833 154.506C298.017 154.511 298.059 154.752 298.075 154.748Z" fill="#A0D92A"/>
<path d="M205.391 199.887L206.61 226.341C207.564 225.527 209.945 224.531 210.344 223.393C210.981 216.727 213.2 209.501 213.67 202.907C213.703 202.441 213.678 201.989 213.42 201.586C213.732 201.657 214.082 201.748 214.394 201.827C215.814 202.192 216.954 202.886 218.286 203.285L217.558 211.05L226.486 205.643L227.044 203.525C228.692 203.073 230.016 201.964 231.664 201.582C231.073 203.231 230.848 206.765 229.72 208.015L217.47 216.665L216.933 217.342L215.614 231.802L215.127 240.66C209.125 240.747 202.906 240.88 196.883 241.146C197.203 231.956 197.699 222.803 197.848 213.604L193.982 208.293C193.499 207.695 193.465 208.505 193.236 208.737C192.333 209.676 188.516 213.675 188.375 214.584C188.233 215.498 188.599 216.167 188.616 216.985C188.774 225.016 188.67 233.015 189.074 241.038L189.823 241.628C188.371 241.856 186.585 242.355 185.078 242.355H178.755C178.302 242.355 177.661 242.334 177.174 242.355L180.966 213.824C180.241 213.16 178.143 209.859 177.415 209.834C176.087 207.263 173.948 205.241 172.445 202.77C172.291 202.516 172.362 202.167 172.308 202.068C172.545 201.607 173.128 201.91 173.481 201.985C175.001 202.3 176.599 202.691 178.143 202.795C178.622 203.579 181.032 206.839 181.669 206.927C182.173 206.997 182.214 206.138 182.252 205.801C182.368 204.809 182.231 203.787 182.281 202.795C183.946 202.645 186.46 202.018 188.121 201.582L188.483 206.918C189.049 206.524 190.839 205.112 190.997 204.559C191.284 203.575 190.252 202.088 190.065 201.096C192.267 200.444 194.198 199.368 196.633 198.912C196.791 199.854 195.355 201.511 195.409 202.172C195.438 202.545 197.978 205.942 198.215 205.947C198.477 205.947 198.564 205.361 198.594 205.112C198.814 203.11 198.406 200.718 198.581 198.667C201.928 198.521 202.556 199.107 205.391 199.879V199.887ZM207.097 240.66C207.564 240.577 207.501 240.154 207.593 239.821C208.271 237.363 208.392 234.223 208.921 231.686C208.554 232.093 207.306 232.932 207.077 233.239C206.252 234.352 207.381 239.082 207.097 240.66Z" fill="#BE6632"/>
<path d="M268.397 192.362L269.129 206.441C270.286 205.743 270.986 204.211 272.289 203.77C272.247 204.613 272.484 205.095 272.53 205.714C272.667 207.417 272.688 208.172 273.258 209.842L269.841 213.106C269.179 214.252 269.795 217.342 269.854 218.704C270.182 226.516 270.615 234.319 271.073 242.122C269.929 242.043 268.068 241.881 267.061 241.881H263.41C262.374 241.881 260.484 241.449 259.397 241.395C259.959 238.235 259.893 235.004 260.13 231.81C260.779 223.139 261.583 214.535 261.841 205.847C261.974 201.349 261.799 196.852 262.074 192.367C264.401 191.74 265.108 191.349 267.743 191.939C268.118 192.022 268.338 192.354 268.397 192.367V192.362Z" fill="#BE6632"/>
<path d="M245.042 198.675L243.572 210.677C244.792 220.823 246.182 230.989 247.231 241.151C247.298 241.786 247.697 244.062 247.073 244.27L235.551 244.062C235.601 242.937 235.485 241.786 235.551 240.665C235.551 240.627 235.784 240.391 235.805 240.079C236.492 229.166 236.971 218.273 237.695 207.342C237.603 206.748 233.969 202.409 233.274 201.553C233.016 201.233 232.937 200.822 232.388 200.86C233.703 199.784 235.014 199.236 236.767 199.161C236.971 199.552 238.065 201.449 238.232 201.586C238.948 202.184 238.619 199.813 238.956 199.402C240.355 199.406 243.755 199.057 245.037 198.675H245.042Z" fill="#BE6632"/>
<path d="M200.768 181.442C201.355 189.582 206.758 197.173 213.747 201.148C214.076 201.335 214.525 201.227 214.388 201.829C214.076 201.75 213.726 201.654 213.414 201.588C210.741 200.99 208.057 200.616 205.384 199.889C202.546 199.117 201.917 198.527 198.575 198.677C197.8 198.71 197.368 198.781 196.627 198.918C194.192 199.374 192.26 200.45 190.058 201.102C189.513 201.264 188.73 201.426 188.11 201.588C186.449 202.028 183.935 202.651 182.27 202.801C181.101 202.904 179.319 202.879 178.133 202.801C176.584 202.697 174.986 202.306 173.471 201.991C173.117 201.916 172.53 201.613 172.297 202.074C171.96 201.472 168.73 200.446 167.756 199.931C165 198.477 160.18 194.412 158.919 191.638C156.059 185.354 156.105 177.302 158.19 170.765C166.42 166.218 176.314 166.754 183.373 173.186C184.872 174.553 186.058 176.301 187.619 177.688C191.432 181.073 195.632 182.468 200.76 181.447L200.768 181.442Z" fill="#62B529"/>
<path d="M255.986 173.92C258.15 178.625 258.238 184.045 256.028 188.887L252.581 194.062C251.582 194.174 250.221 195.719 249.205 196.4C248.352 196.973 245.83 198.439 245.039 198.675C243.752 199.057 240.356 199.41 238.957 199.402C238.416 199.402 237.621 199.124 236.768 199.161C235.015 199.236 233.704 199.784 232.389 200.86C232.073 201.117 231.994 200.652 231.661 201.587C230.008 201.969 228.684 203.077 227.04 203.53C224.151 204.323 221.142 204.136 218.282 203.289C216.95 202.895 215.81 202.197 214.39 201.832C214.524 201.229 214.074 201.337 213.749 201.15C206.761 197.176 201.358 189.585 200.771 181.445C200.754 181.204 200.783 180.959 200.771 180.718C203.443 179.198 205.961 177.155 209.167 176.835C221.479 175.61 222.67 188.422 236.647 187.267C245.268 186.557 250.979 180.195 255.99 173.924L255.986 173.92Z" fill="#027D40"/>
<path d="M244.554 151.832C253.091 150.869 260.779 155.578 263.776 163.597C265.025 166.936 265.033 169.594 267.747 172.376C271.039 175.753 275.997 176.799 280.555 176.832C278.653 182.692 276.784 188.46 274.715 194.308C272.675 193.461 270.498 192.908 268.392 192.364C268.334 192.348 268.113 192.019 267.739 191.936C265.1 191.351 264.392 191.737 262.069 192.364C261.932 192.402 261.724 192.327 261.582 192.364L261.341 192.605C258.115 193.452 255.851 193.697 252.583 194.063L256.03 188.888C258.236 184.046 258.152 178.622 255.988 173.921C253.749 169.058 250.315 164.669 247.867 159.814C246.518 157.135 245.707 154.407 244.554 151.832Z" fill="#62B529"/>
<path d="M244.311 151.591L244.068 151.35C244.102 151.425 244.269 151.495 244.311 151.591Z" fill="#62B529"/>
<path d="M182.281 202.799C182.231 203.791 182.368 204.813 182.252 205.806C182.214 206.138 182.173 207.002 181.669 206.931C181.032 206.844 178.622 203.584 178.144 202.799C179.33 202.878 181.111 202.903 182.281 202.799Z" fill="#027D40"/>
<path d="M261.343 192.609L261.585 192.367C261.514 192.388 261.418 192.592 261.343 192.609Z" fill="#BE6632"/>
</svg>
