<svg width="125" height="12" viewBox="0 0 125 12" fill="none" xmlns="http://www.w3.org/2000/svg">
<g opacity="0.57">
<path d="M0.53125 10.0751C0.915654 10.2959 1.57583 10.3168 2.20257 10.3543C1.72207 10.1418 1.20814 10.0501 0.53125 10.0751Z" fill="#43C554"/>
<path d="M2.21366 10.3584H2.222C2.21367 10.3584 2.20534 10.3584 2.20117 10.3584C2.20534 10.3584 2.20949 10.3584 2.21366 10.3626V10.3584Z" fill="#43C554"/>
<path d="M123.808 0.320801C123.653 0.324967 123.474 0.329146 123.294 0.333313C123.465 0.341646 123.641 0.341634 123.808 0.320801Z" fill="#43C554"/>
<path d="M32.5741 10.975L32.6702 10.6083C34.1576 10.6 33.1047 11.0292 34.4794 10.9375C35.0184 10.4167 36.7649 10.9875 37.2371 10.7125C37.2245 10.7542 37.9014 10.7708 37.8555 10.9333C38.0602 10.65 38.549 10.8667 38.971 10.7959C39.1256 10.7167 38.8582 10.7125 38.7413 10.625L39.7148 10.525C40.095 10.6167 40.1869 10.7833 39.7775 10.8125C42.3179 10.9125 54.5227 11.1708 57.2595 11.0292C56.9085 10.8167 56.0603 10.9625 55.7428 10.625C56.4656 10.4375 56.8082 10.6916 57.1258 10.4916C57.4057 10.9916 58.7177 10.6083 59.2651 11.1166L59.474 10.8333L59.8333 11.0042C63.0172 10.7084 60.5604 10.8583 63.3807 10.925C65.0144 10.8792 65.7916 10.4875 66.6983 10.6333C66.5646 10.6333 66.2011 10.4584 66.6273 10.3834C66.6983 10.6334 67.7554 10.2042 67.9601 10.4542C68.3738 10.4209 69.715 10.4542 69.2637 10.1125C69.4935 10.2833 70.6886 10.35 69.9783 10.4958C70.3836 10.5041 70.7721 10.5542 71.0646 10.4792L70.5465 10.3834C71.9128 10.3334 72.6565 10.5958 73.5423 10.2875L73.0368 10.1542C73.8515 10.1334 74.5368 10.1042 74.8543 10.4417L74.0187 10.5459C75.3724 10.5375 76.1872 10.5125 77.3153 10.3334L76.9142 10.325C78.3516 9.98751 85.8683 9.70418 87.1887 9.28335L86.5787 9.02506L87.7152 8.80422C87.5814 8.80422 87.1678 9.64998 87.055 9.56665C89.4951 9.54165 102.185 9.32919 104.437 9.50419C105.348 9.64586 104.6 9.91673 104.591 9.95839C105.699 9.85839 105.068 9.68335 106.008 9.70418C106.263 9.75002 105.953 9.90838 105.811 9.94588C106.225 9.91672 106.605 10.0042 106.639 9.88332C106.125 9.78749 106.342 9.46665 106.125 9.25415L107.336 9.27917L107.282 9.48334C107.554 9.4875 107.967 8.92497 109.154 9.0333C111.16 9.1208 113.337 9.04586 115.355 9.09169C115.325 9.21253 114.899 9.28748 114.477 9.35832C114.749 9.36248 115.158 9.33338 115.409 9.42088C114.92 9.20421 116.253 9.27502 115.873 9.18335C117.348 8.68335 119.261 9.13754 120.565 8.79588C120.678 8.34588 123.352 1.08336 123.352 0.550028C123.757 0.558362 124.158 0.566654 124.284 0.612488C124.179 0.487488 123.385 0.429146 122.959 0.49998L122.888 0.787557C121.915 0.887557 122.658 0.616679 121.71 0.637512C121.66 0.404179 122.533 0.354183 123.302 0.329183C122.608 0.304183 121.919 0.133305 121.635 0.387472C120.983 0.291638 121.706 0.1 120.924 0C120.364 0.0708333 119.633 0.300057 118.99 0.162557L119.002 0.12085C117.444 -0.120817 116.616 0.479199 115.188 0.241699L115.342 0.162557C114.837 0.0292236 113.846 0.208398 112.935 0.0667318C113.194 0.112565 113.42 0.283333 112.873 0.3125C111.828 0.166667 111.114 0.312528 110.349 0.133362L109.618 0.362549C105.979 0.320882 91.6052 0.658402 87.9492 0.695902L88.0912 0.658366C82.5215 0.779199 71.0855 0.766711 65.332 1.08754C64.442 0.862545 63.2136 0.916687 62.286 0.854187C62.8041 0.945854 62.6244 1.10839 62.2233 1.10006C59.3946 1.07506 62.0311 1.25417 59.169 1.35417C55.8723 1.56667 43.258 1.3375 40.3332 1.14583C38.7621 1.47917 36.7983 1.22915 35.2607 1.44165L35.4153 1.36251C33.7607 1.48751 24.4013 1.18756 22.4793 1.30839L22.7383 1.35417C21.0628 1.5625 21.2926 1.20004 19.9681 1.08754C20.1436 1.45838 18.7063 1.67503 18.1589 1.70003L18.1798 1.61672C17.3525 1.67922 15.4848 2.00414 14.1185 2.05831L14.1728 1.85415C13.0363 2.07498 10.897 1.98336 10.0781 2.00836C8.21036 1.92503 5.32316 1.5708 2.82453 1.8458L1.20753 1.26668L0.969365 1.32497C0.969365 1.32497 -1.62536 8.35005 1.6755 9.84589L1.62118 10.05L2.27299 10.025C3.05434 10.125 3.41784 9.88749 3.36353 10.0917L2.2897 10.0667C3.07522 10.1251 2.52788 10.2334 2.22704 10.35C2.55712 10.3709 2.87467 10.3917 3.13791 10.4542C3.2925 10.375 3.02509 10.3708 2.89974 10.325C3.32175 10.2542 3.9109 10.0625 4.42901 10.1542C5.23543 10.1709 4.47915 10.4833 5.41927 10.5042C10.3789 10.6583 15.184 10.8917 20.1979 10.8417C20.3107 10.925 20.177 10.925 20.0308 10.9625C21.5392 10.875 22.8846 10.9041 24.2592 10.8125C24.6395 10.9041 24.7439 11.0292 24.8568 11.1126C24.6311 10.9417 32.4487 10.9209 32.5741 10.9667V10.975Z" fill="#43C554"/>
</g>
</svg>
